<?xml version="1.0" encoding="UTF-8"?>
<svg id="Capa_2" xmlns="http://www.w3.org/2000/svg" version="1.1" viewBox="0 0 262 141.1">
  <!-- Generator: Adobe Illustrator 29.8.1, SVG Export Plug-In . SVG Version: 2.1.1 Build 2)  -->
  <defs>
    <style>
      .st0 {
        fill: #585e5e;
      }
    </style>
  </defs>
  <g id="Capa_1-2">
    <g>
      <g>
        <path class="st0" d="M254,82.9c.2,0,.4,0,.7,0,.4,0,.6,0,.8.2.1.1.2.3.2.5,0,.4-.2.6-.5.7h0c.2,0,.3.3.4.6,0,.4.2.7.2.8h-.4c0,0-.1-.3-.2-.7,0-.4-.2-.5-.6-.5h-.3v1.2h-.4v-2.8h0ZM254.4,84.2h.4c.4,0,.6-.2.6-.5s-.3-.5-.6-.5c-.2,0-.3,0-.4,0v1h0Z"/>
        <path class="st0" d="M254.8,86.9c-1.4,0-2.5-1.1-2.5-2.5s1.1-2.5,2.5-2.5,2.5,1.1,2.5,2.5-1.1,2.5-2.5,2.5ZM254.8,82.3c-1.1,0-2.1.9-2.1,2.1s.9,2.1,2.1,2.1,2.1-.9,2.1-2.1-.9-2.1-2.1-2.1Z"/>
      </g>
      <g>
        <path class="st0" d="M36.2,56.2v-5.5c0-1.9-1.6-3-2.9-3s-2.9,1.1-2.9,3v18.6c0,2,1.6,3.1,2.9,3.1s2.9-1.2,2.9-3.1v-5.1c0-.7.6-1.3,1.3-1.3h22.6c.7,0,1.3.6,1.3,1.3v14.5c0,4.8-3.6,7.9-8.5,7.9,0,0-4.9.6-19.3.6s-20.4-.6-20.4-.6c-4.9,0-8.5-3.2-8.5-7.9v-37.2c0-4.8,3.6-7.9,8.5-7.9,0,0,6-.6,20.4-.6s19.3.6,19.3.6c4.9,0,8.5,3.2,8.5,7.9v14.8c0,.7-.6,1.3-1.3,1.3h-22.6c-.7,0-1.3-.6-1.3-1.3"/>
        <path class="st0" d="M99,69.9c0,3.5-1.8,4-2.9,4s-2.9-.5-2.9-4v-19.5c0-3.5,1.8-4,2.9-4s2.9.5,2.9,4c0,0,0,19.5,0,19.5ZM116.1,33.5s-5.7-.6-20.1-.6-20.1.6-20.1.6c-4.9,0-8.5,3.2-8.5,7.9v37.2c0,4.8,3.6,7.9,8.5,7.9,0,0,5.7.6,20.1.6s20.1-.6,20.1-.6c4.9,0,8.5-3.2,8.5-7.9v-37.2c0-4.8-3.6-7.9-8.5-7.9"/>
        <path class="st0" d="M186.3,34.8l-12.1,51.1c-.1.5-.5.8-1,.8h-31.2c-.5,0-.9-.3-1-.8l-12.4-51.1c0-.3,0-.6.2-.9.2-.2.5-.4.8-.4h26.1c.5,0,.9.3,1,.8l4.1,19.9,3.6-19.9c0-.5.5-.8,1-.8h19.9c.3,0,.6.1.8.4.2.2.3.6.2.9"/>
        <path class="st0" d="M221.3,56.2c0,3.3-1.8,3.7-2.9,3.7s-2.9-.5-2.9-3.7v-6.1c0-3.3,1.8-3.7,2.9-3.7s2.9.5,2.9,3.7c0,0,0,6.1,0,6.1ZM238,33.5s-6.1-.6-19.6-.6-19.6.6-19.6.6c-4.9,0-8.5,3.2-8.5,7.9v43.9c0,.7.6,1.3,1.3,1.3h22.6c.7,0,1.3-.6,1.3-1.3v-8c0-1.2.7-3.5,2.9-3.5s2.9,2.3,2.9,3.5v8c0,.7.6,1.3,1.3,1.3h22.6c.7,0,1.3-.6,1.3-1.3v-43.9c0-4.8-3.6-7.9-8.5-7.9"/>
        <path class="st0" d="M12.9,101.5c-.2-.3-.5-.5-.9-.7-.4-.2-.7-.2-1.1-.2s-.9,0-1.3.3c-.4.2-.7.4-1,.7s-.5.7-.6,1.1c-.1.4-.2.8-.2,1.3s0,.8.2,1.2c.1.4.3.7.6,1,.3.3.6.5,1,.7.4.2.8.3,1.3.3s.9,0,1.3-.3.7-.5.9-.8l.9.7c0,0-.2.2-.3.4-.2.2-.4.3-.6.5-.3.2-.6.3-.9.4-.4.1-.8.2-1.3.2s-1.2-.1-1.8-.4c-.5-.3-1-.6-1.3-1s-.7-.9-.8-1.4-.3-1-.3-1.5.1-1.2.3-1.8c.2-.5.5-1,.9-1.4s.8-.7,1.4-.9c.5-.2,1.1-.3,1.8-.3s1.1.1,1.6.3c.5.2,1,.5,1.3,1l-.9.7h0Z"/>
        <path class="st0" d="M22.7,107.1c.5,0,.9,0,1.3-.3.4-.2.7-.4,1-.7s.5-.6.6-1c.1-.4.2-.8.2-1.3s0-.9-.2-1.3c-.1-.4-.4-.8-.6-1s-.6-.5-1-.7c-.4-.2-.8-.3-1.3-.3s-.9,0-1.3.3-.7.4-1,.7-.5.6-.6,1c-.1.4-.2.8-.2,1.3s0,.9.2,1.3.4.8.6,1c.3.3.6.5,1,.7.4.2.8.3,1.3.3M22.7,108.2c-.6,0-1.2-.1-1.7-.3s-1-.5-1.4-.9c-.4-.4-.7-.8-.9-1.4s-.3-1.1-.3-1.7.1-1.2.3-1.7c.2-.5.5-1,.9-1.4s.8-.7,1.4-.9c.5-.2,1.1-.3,1.7-.3s1.2.1,1.7.3,1,.5,1.4.9c.4.4.7.8.9,1.4.2.5.3,1.1.3,1.7s-.1,1.2-.3,1.7c-.2.5-.5,1-.9,1.4s-.8.7-1.4.9c-.5.2-1.1.3-1.7.3"/>
        <polygon class="st0" points="32.2 99.7 33.6 99.7 38.2 106.5 38.2 106.5 38.2 99.7 39.3 99.7 39.3 108 37.9 108 33.3 101.2 33.3 101.2 33.3 108 32.2 108 32.2 99.7"/>
        <path class="st0" d="M46,106.9h1.4c.5,0,.9,0,1.3-.2s.8-.3,1.1-.6c.3-.3.6-.6.8-1,.2-.4.3-.8.3-1.3s0-.6-.1-.9-.2-.7-.5-1c-.2-.3-.6-.6-1-.8-.4-.2-1-.3-1.6-.3h-1.7v6.2h0ZM44.8,99.7h2.9c.6,0,1.1,0,1.5.2s.8.3,1.1.5c.3.2.6.5.8.8s.4.6.5.9c.1.3.2.6.3.9,0,.3,0,.6,0,.8,0,.5,0,1-.3,1.5s-.5.9-.9,1.3c-.4.4-.9.7-1.4.9s-1.2.4-2,.4h-2.7v-8.3h0Z"/>
        <polygon class="st0" points="57.2 99.7 62.6 99.7 62.6 100.7 58.4 100.7 58.4 103.2 62.3 103.2 62.3 104.2 58.4 104.2 58.4 106.9 62.8 106.9 62.8 108 57.2 108 57.2 99.7"/>
        <path class="st0" d="M68.2,106.2c.2.3.5.5.8.7.3.1.6.2,1,.2s.4,0,.6,0,.4-.1.5-.3c.2-.1.3-.3.4-.4.1-.2.2-.4.2-.6s-.1-.6-.3-.7c-.2-.2-.5-.3-.8-.4s-.6-.2-1-.3c-.4-.1-.7-.3-1-.4-.3-.2-.6-.4-.8-.8s-.3-.7-.3-1.3,0-.5.2-.8.3-.5.5-.8c.2-.2.5-.4.9-.6.4-.2.8-.2,1.3-.2s.9,0,1.3.2c.4.1.8.4,1.1.8l-.9.8c-.1-.2-.3-.4-.6-.5-.3-.1-.6-.2-.9-.2s-.6,0-.8.1c-.2,0-.4.2-.5.3s-.2.3-.3.4,0,.3,0,.4c0,.4.1.6.3.8.2.2.5.3.8.5.3.1.6.2,1,.3.4,0,.7.2,1,.4s.6.4.8.7.3.7.3,1.2,0,.8-.2,1.1c-.2.3-.4.6-.6.8-.3.2-.6.4-.9.5-.4.1-.7.2-1.1.2s-1,0-1.5-.3c-.5-.2-.9-.5-1.1-.9l.9-.8h0Z"/>
        <path class="st0" d="M82.6,104.9l-1.5-3.8h0l-1.6,3.8h3.1ZM80.6,99.7h1l3.5,8.3h-1.3l-.8-2h-3.9l-.8,2h-1.3l3.7-8.3h0Z"/>
        <rect class="st0" x="99" y="103.2" width="4.1" height="1.4"/>
        <path class="st0" d="M125.3,101.5c-.2-.3-.5-.5-.9-.7-.4-.2-.7-.2-1.1-.2s-.9,0-1.3.3c-.4.2-.7.4-1,.7s-.5.7-.6,1.1c-.1.4-.2.8-.2,1.3s0,.8.2,1.2c.1.4.3.7.6,1s.6.5,1,.7c.4.2.8.3,1.3.3s.9,0,1.3-.3.7-.5.9-.8l.9.7c0,0-.2.2-.3.4-.2.2-.4.3-.6.5s-.6.3-.9.4c-.4.1-.8.2-1.3.2s-1.2-.1-1.8-.4c-.5-.3-1-.6-1.3-1s-.7-.9-.8-1.4-.3-1-.3-1.5.1-1.2.3-1.8c.2-.5.5-1,.9-1.4.4-.4.8-.7,1.4-.9.5-.2,1.1-.3,1.8-.3s1.1.1,1.6.3c.5.2,1,.5,1.3,1l-.9.7h0Z"/>
        <polygon class="st0" points="131.3 99.7 132.5 99.7 132.5 103.1 136.8 103.1 136.8 99.7 137.9 99.7 137.9 108 136.8 108 136.8 104.2 132.5 104.2 132.5 108 131.3 108 131.3 99.7"/>
        <rect class="st0" x="143.6" y="99.7" width="1.1" height="8.3"/>
        <polygon class="st0" points="150.3 99.7 151.5 99.7 151.5 106.9 155.3 106.9 155.3 108 150.3 108 150.3 99.7"/>
        <path class="st0" d="M161.1,103.3h1.5c.2,0,.4,0,.6,0,.2,0,.4-.1.6-.2.2,0,.3-.2.4-.4s.2-.4.2-.7,0-.5-.2-.7c-.1-.2-.2-.3-.4-.4-.2,0-.4-.2-.6-.2-.2,0-.4,0-.6,0h-1.5v2.7ZM160,99.7h2.9c.5,0,1,0,1.3.2.3.1.6.3.8.5.2.2.3.5.4.8,0,.3.1.5.1.8s0,.5-.1.8c0,.3-.2.5-.4.8-.2.2-.5.4-.8.6-.3.1-.8.2-1.3.2h-1.8v3.7h-1.1v-8.3h0Z"/>
        <path class="st0" d="M174.2,104.9l-1.5-3.8h0l-1.6,3.8h3.1ZM172.2,99.7h1l3.5,8.3h-1.3l-.8-2h-3.9l-.8,2h-1.3l3.7-8.3Z"/>
        <polygon class="st0" points="181.4 99.7 182.8 99.7 187.4 106.5 187.4 106.5 187.4 99.7 188.6 99.7 188.6 108 187.1 108 182.5 101.2 182.5 101.2 182.5 108 181.4 108 181.4 99.7"/>
        <path class="st0" d="M200,101.5c-.2-.3-.5-.5-.9-.7-.4-.2-.7-.2-1.1-.2s-.9,0-1.3.3c-.4.2-.7.4-1,.7s-.5.7-.6,1.1c-.1.4-.2.8-.2,1.3s0,.8.2,1.2c.1.4.3.7.6,1s.6.5,1,.7c.4.2.8.3,1.3.3s.9,0,1.3-.3.7-.5.9-.8l.9.7c0,0-.2.2-.3.4-.2.2-.4.3-.6.5s-.6.3-.9.4c-.4.1-.8.2-1.3.2s-1.2-.1-1.8-.4c-.5-.3-1-.6-1.3-1s-.7-.9-.8-1.4-.3-1-.3-1.5.1-1.2.3-1.8.5-1,.9-1.4c.4-.4.8-.7,1.4-.9.5-.2,1.1-.3,1.8-.3s1.1.1,1.6.3c.5.2,1,.5,1.3,1l-.9.7h0Z"/>
        <rect class="st0" x="206" y="99.7" width="1.1" height="8.3"/>
        <polygon class="st0" points="212.8 99.7 214.3 99.7 218.9 106.5 218.9 106.5 218.9 99.7 220 99.7 220 108 218.6 108 214 101.2 213.9 101.2 213.9 108 212.8 108 212.8 99.7"/>
        <path class="st0" d="M232.7,103.3v4.1c-.2.1-.4.2-.7.3s-.5.2-.8.2-.6.1-.8.1-.6,0-.8,0c-.7,0-1.3-.1-1.9-.4-.6-.2-1-.6-1.4-.9-.4-.4-.7-.9-.9-1.4-.2-.5-.3-1.1-.3-1.7s.1-1.2.3-1.7c.2-.5.5-1,.9-1.4s.8-.7,1.4-.9c.5-.2,1.1-.3,1.7-.3s1.4,0,1.9.3c.5.2.9.5,1.2.8l-.8.9c-.3-.3-.7-.6-1.1-.7s-.8-.2-1.2-.2-.9,0-1.3.3-.7.4-1,.7c-.3.3-.5.6-.6,1-.1.4-.2.8-.2,1.3s0,.9.2,1.3c.2.4.4.8.7,1,.3.3.6.5,1,.7.4.2.8.3,1.3.3s.8,0,1.1-.1c.4,0,.7-.2.9-.3v-2.3h-1.8v-1.1h3Z"/>
        <path class="st0" d="M242.1,107.1c.5,0,.9,0,1.3-.3.4-.2.7-.4,1-.7s.5-.6.6-1c.1-.4.2-.8.2-1.3s0-.9-.2-1.3c-.1-.4-.4-.8-.6-1s-.6-.5-1-.7c-.4-.2-.8-.3-1.3-.3s-.9,0-1.3.3-.7.4-1,.7-.5.6-.6,1c-.1.4-.2.8-.2,1.3s0,.9.2,1.3c.1.4.4.8.6,1,.3.3.6.5,1,.7.4.2.8.3,1.3.3M242.1,108.2c-.6,0-1.2-.1-1.7-.3s-1-.5-1.4-.9c-.4-.4-.7-.8-.9-1.4-.2-.5-.3-1.1-.3-1.7s.1-1.2.3-1.7c.2-.5.5-1,.9-1.4s.8-.7,1.4-.9c.5-.2,1.1-.3,1.7-.3s1.2.1,1.7.3,1,.5,1.4.9c.4.4.7.8.9,1.4.2.5.3,1.1.3,1.7s-.1,1.2-.3,1.7c-.2.5-.5,1-.9,1.4s-.8.7-1.4.9c-.5.2-1.1.3-1.7.3"/>
      </g>
    </g>
  </g>
</svg>