<?xml version="1.0" encoding="UTF-8"?>
<svg id="Capa_2" data-name="Capa 2" xmlns="http://www.w3.org/2000/svg" viewBox="0 0 494.01 147.17">
  <defs>
    <style>
      .cls-1 {
        fill: #585e5e;
      }
    </style>
  </defs>
  <g id="Capa_1-2" data-name="Capa 1">
    <g>
      <g>
        <path class="cls-1" d="M487.6,97.77c.36-.07.87-.11,1.36-.11.76,0,1.24.13,1.59.45.28.25.43.62.43,1.04,0,.73-.46,1.21-1.03,1.4v.02c.43.15.67.54.81,1.11.18.76.31,1.3.43,1.51h-.73c-.09-.16-.21-.63-.37-1.31-.16-.76-.46-1.04-1.1-1.07h-.67v2.38h-.71v-5.42h0ZM488.32,100.27h.73c.76,0,1.24-.41,1.24-1.04,0-.71-.52-1.02-1.27-1.03-.34,0-.58.03-.7.07v2.01h0Z"/>
        <path class="cls-1" d="M489.08,105.5c-2.72,0-4.93-2.21-4.93-4.93s2.21-4.93,4.93-4.93,4.93,2.21,4.93,4.93-2.21,4.93-4.93,4.93ZM489.08,96.51c-2.24,0-4.06,1.82-4.06,4.06s1.82,4.06,4.06,4.06,4.06-1.82,4.06-4.06-1.82-4.06-4.06-4.06Z"/>
      </g>
      <g>
        <path class="cls-1" d="M61.66,45.59v-10.8c0-3.63-3.17-5.83-5.76-5.83s-5.76,2.2-5.76,5.83v36.41c0,3.87,3.17,6.11,5.76,6.11s5.76-2.36,5.76-6.11v-9.94c0-1.36,1.1-2.47,2.47-2.47h44.17c1.36,0,2.47,1.1,2.47,2.47v28.29c0,9.36-7,15.54-16.58,15.54,0,0-9.57,1.18-37.76,1.18s-39.84-1.18-39.84-1.18c-9.58,0-16.58-6.17-16.58-15.54V16.72C0,7.35,7,1.18,16.58,1.18,16.58,1.18,28.24,0,56.42,0s37.76,1.18,37.76,1.18c9.59,0,16.58,6.17,16.58,15.54v28.87c0,1.36-1.11,2.47-2.47,2.47h-44.17c-1.36,0-2.47-1.1-2.47-2.47"/>
        <path class="cls-1" d="M184.38,72.24c0,6.82-3.61,7.84-5.76,7.84s-5.76-1.02-5.76-7.84v-38.21c0-6.82,3.61-7.84,5.76-7.84s5.76,1.02,5.76,7.84v38.21ZM217.94,1.18s-11.14-1.18-39.32-1.18-39.32,1.18-39.32,1.18c-9.58,0-16.58,6.17-16.58,15.54v72.83c0,9.36,7,15.54,16.58,15.54,0,0,11.14,1.18,39.32,1.18s39.32-1.18,39.32-1.18c9.58,0,16.58-6.17,16.58-15.54V16.72c0-9.37-6.99-15.54-16.58-15.54"/>
        <path class="cls-1" d="M355.1,3.64l-23.68,99.91c-.21.89-1.01,1.53-1.94,1.53h-60.99c-.92,0-1.72-.63-1.93-1.52L242.36,3.65c-.14-.59,0-1.22.37-1.69.38-.48.95-.76,1.56-.76h51.04c.95,0,1.76.66,1.95,1.59l8.03,38.94,6.96-38.89c.17-.95.99-1.64,1.96-1.64h38.94c.61,0,1.18.28,1.56.75.38.48.52,1.1.38,1.69"/>
        <path class="cls-1" d="M423.7,45.52c0,6.37-3.61,7.32-5.76,7.32s-5.76-.95-5.76-7.32v-12.01c0-6.36,3.61-7.32,5.76-7.32s5.76.95,5.76,7.32v12.01ZM456.22,1.18s-12-1.18-38.28-1.18-38.28,1.18-38.28,1.18c-9.59,0-16.58,6.17-16.58,15.54v85.88c0,1.37,1.11,2.48,2.49,2.48h44.13c1.37,0,2.48-1.11,2.48-2.48v-15.67c0-2.39,1.42-6.8,5.76-6.8s5.76,4.41,5.76,6.8v15.67c0,1.37,1.11,2.48,2.48,2.48h44.13c1.37,0,2.48-1.11,2.48-2.48V16.72c0-9.37-6.99-15.54-16.58-15.54"/>
        <path class="cls-1" d="M15.97,134.06c-.46-.6-1.04-1.05-1.74-1.37-.7-.32-1.43-.48-2.17-.48-.92,0-1.74.17-2.48.52-.74.34-1.37.81-1.9,1.41-.53.6-.94,1.29-1.22,2.1-.29.8-.44,1.66-.44,2.57,0,.85.14,1.66.41,2.43.27.76.67,1.43,1.19,2.01.52.58,1.15,1.04,1.9,1.37.75.34,1.6.5,2.54.5s1.75-.19,2.45-.57c.7-.38,1.3-.92,1.79-1.6l1.85,1.4c-.12.17-.34.41-.64.72-.31.31-.71.63-1.21.94-.5.31-1.11.59-1.82.82-.71.24-1.53.36-2.46.36-1.28,0-2.44-.25-3.47-.73-1.03-.49-1.91-1.13-2.63-1.92-.72-.79-1.28-1.69-1.66-2.69s-.57-2.01-.57-3.03c0-1.25.21-2.41.62-3.47.41-1.06.99-1.98,1.73-2.75.74-.77,1.63-1.37,2.67-1.8,1.04-.43,2.18-.64,3.43-.64,1.07,0,2.12.21,3.15.62,1.03.41,1.87,1.05,2.53,1.9l-1.83,1.4Z"/>
        <path class="cls-1" d="M35.18,145.11c.93,0,1.77-.17,2.52-.52.75-.34,1.39-.8,1.92-1.38.53-.58.95-1.26,1.24-2.05.29-.79.43-1.62.43-2.51s-.14-1.72-.43-2.5c-.29-.79-.7-1.47-1.24-2.05s-1.17-1.04-1.92-1.39c-.75-.34-1.59-.51-2.52-.51s-1.77.17-2.52.51c-.75.34-1.39.81-1.92,1.39s-.95,1.26-1.24,2.05c-.29.79-.44,1.62-.44,2.5s.15,1.72.44,2.51c.29.79.7,1.47,1.24,2.05.53.58,1.17,1.04,1.92,1.38.75.34,1.59.52,2.52.52M35.18,147.17c-1.24,0-2.37-.22-3.41-.65-1.04-.43-1.93-1.03-2.67-1.8-.74-.76-1.32-1.66-1.74-2.7-.42-1.04-.63-2.16-.63-3.36s.21-2.33.63-3.36c.42-1.04,1-1.94,1.74-2.7.74-.76,1.63-1.36,2.67-1.8,1.04-.43,2.17-.65,3.41-.65s2.37.22,3.41.65c1.04.43,1.93,1.03,2.67,1.8.74.76,1.32,1.66,1.74,2.7.42,1.04.63,2.16.63,3.36s-.21,2.33-.63,3.36c-.42,1.04-1,1.94-1.74,2.7-.74.76-1.63,1.36-2.67,1.8-1.04.43-2.17.65-3.41.65"/>
        <polygon class="cls-1" points="53.71 130.56 56.6 130.56 65.52 143.88 65.57 143.88 65.57 130.56 67.77 130.56 67.77 146.76 64.98 146.76 55.96 133.44 55.91 133.44 55.91 146.76 53.71 146.76 53.71 130.56"/>
        <path class="cls-1" d="M80.7,144.7h2.77c.93,0,1.81-.13,2.64-.38.83-.25,1.56-.63,2.19-1.13.63-.5,1.12-1.13,1.49-1.89.37-.76.55-1.64.55-2.64,0-.52-.08-1.13-.25-1.82-.17-.69-.48-1.35-.95-1.98-.47-.63-1.11-1.15-1.93-1.59-.82-.43-1.89-.65-3.2-.65h-3.29v12.08ZM78.5,130.56h5.65c1.14,0,2.15.13,3.01.39.86.26,1.61.61,2.24,1.04.63.44,1.16.94,1.58,1.5.42.56.75,1.15,1,1.74.24.6.42,1.19.53,1.79.11.59.16,1.14.16,1.65,0,1.04-.19,2.04-.57,3.01-.38.97-.95,1.83-1.69,2.59-.75.75-1.67,1.36-2.78,1.82-1.11.46-2.38.69-3.83.69h-5.29v-16.2Z"/>
        <polygon class="cls-1" points="102.76 130.56 113.22 130.56 113.22 132.61 104.96 132.61 104.96 137.44 112.65 137.44 112.65 139.5 104.96 139.5 104.96 144.7 113.63 144.7 113.63 146.76 102.76 146.76 102.76 130.56"/>
        <path class="cls-1" d="M124.16,143.37c.4.6.9,1.04,1.52,1.32.62.28,1.26.42,1.91.42.37,0,.74-.06,1.12-.17.38-.11.73-.29,1.04-.52.31-.23.57-.51.77-.85.2-.34.3-.72.3-1.17,0-.63-.2-1.1-.59-1.43-.4-.33-.89-.6-1.48-.82-.59-.22-1.23-.43-1.92-.64-.69-.2-1.34-.49-1.92-.86-.59-.36-1.08-.86-1.48-1.48-.4-.62-.59-1.45-.59-2.5,0-.47.1-.98.31-1.51.21-.53.53-1.02.97-1.47.44-.44,1.01-.81,1.71-1.11.69-.3,1.53-.45,2.51-.45.88,0,1.73.12,2.54.37.81.24,1.52.74,2.13,1.49l-1.78,1.62c-.27-.43-.66-.77-1.17-1.03-.5-.26-1.08-.39-1.72-.39s-1.12.08-1.52.24c-.4.16-.73.37-.97.62-.24.25-.41.52-.51.81-.1.29-.15.56-.15.8,0,.69.2,1.21.59,1.58.4.37.89.66,1.48.89.59.23,1.23.43,1.92.62.69.18,1.33.44,1.92.77.59.33,1.08.77,1.48,1.33.4.56.59,1.32.59,2.3,0,.78-.15,1.48-.45,2.11-.3.62-.7,1.15-1.2,1.58-.5.43-1.1.75-1.78.98-.69.23-1.42.34-2.2.34-1.04,0-2.02-.18-2.95-.55-.93-.37-1.67-.93-2.22-1.69l1.81-1.56Z"/>
        <path class="cls-1" d="M152.36,140.83l-3.02-7.44h-.05l-3.07,7.44h6.13ZM148.42,130.56h1.99l6.93,16.2h-2.56l-1.63-4h-7.71l-1.6,4h-2.56l7.14-16.2Z"/>
        <rect class="cls-1" x="184.44" y="137.47" width="8.04" height="2.75"/>
        <path class="cls-1" d="M235.9,134.06c-.46-.6-1.04-1.05-1.74-1.37-.7-.32-1.43-.48-2.17-.48-.92,0-1.74.17-2.48.52-.74.34-1.37.81-1.9,1.41-.53.6-.94,1.29-1.23,2.1-.29.8-.43,1.66-.43,2.57,0,.85.14,1.66.41,2.43.28.76.67,1.43,1.19,2.01.52.58,1.15,1.04,1.9,1.37.75.34,1.59.5,2.54.5s1.75-.19,2.45-.57c.7-.38,1.3-.92,1.78-1.6l1.85,1.4c-.12.17-.34.41-.64.72-.31.31-.71.63-1.21.94-.5.31-1.11.59-1.82.82-.71.24-1.53.36-2.46.36-1.28,0-2.44-.25-3.47-.73-1.03-.49-1.91-1.13-2.63-1.92-.72-.79-1.28-1.69-1.66-2.69-.38-1-.57-2.01-.57-3.03,0-1.25.21-2.41.62-3.47.41-1.06.99-1.98,1.73-2.75.74-.77,1.63-1.37,2.67-1.8,1.04-.43,2.18-.64,3.43-.64,1.07,0,2.12.21,3.15.62,1.03.41,1.87,1.05,2.53,1.9l-1.83,1.4Z"/>
        <polygon class="cls-1" points="247.66 130.56 249.86 130.56 249.86 137.28 258.26 137.28 258.26 130.56 260.46 130.56 260.46 146.76 258.26 146.76 258.26 139.34 249.86 139.34 249.86 146.76 247.66 146.76 247.66 130.56"/>
        <rect class="cls-1" x="271.56" y="130.55" width="2.2" height="16.2"/>
        <polygon class="cls-1" points="284.85 130.56 287.05 130.56 287.05 144.7 294.49 144.7 294.49 146.76 284.85 146.76 284.85 130.56"/>
        <path class="cls-1" d="M305.87,137.7h2.88c.43,0,.85-.03,1.27-.1.42-.07.79-.2,1.12-.38.33-.18.59-.45.79-.79.2-.34.3-.79.3-1.34s-.1-1-.3-1.34c-.2-.34-.46-.61-.79-.79-.33-.18-.7-.31-1.12-.38-.42-.07-.84-.1-1.27-.1h-2.88v5.22ZM303.67,130.56h5.7c1.04,0,1.89.14,2.56.42.67.28,1.2.64,1.59,1.07.39.44.66.92.81,1.47.15.54.23,1.06.23,1.57s-.08,1.03-.23,1.57c-.15.54-.42,1.03-.81,1.47-.39.43-.92.79-1.59,1.08-.67.28-1.53.42-2.56.42h-3.5v7.14h-2.2v-16.2Z"/>
        <path class="cls-1" d="M331.5,140.83l-3.02-7.44h-.05l-3.07,7.44h6.13ZM327.56,130.56h1.99l6.93,16.2h-2.56l-1.63-4h-7.71l-1.6,4h-2.56l7.14-16.2Z"/>
        <polygon class="cls-1" points="345.53 130.56 348.41 130.56 357.34 143.88 357.38 143.88 357.38 130.56 359.58 130.56 359.58 146.76 356.79 146.76 347.77 133.44 347.72 133.44 347.72 146.76 345.53 146.76 345.53 130.56"/>
        <path class="cls-1" d="M381.96,134.06c-.46-.6-1.04-1.05-1.74-1.37-.7-.32-1.43-.48-2.17-.48-.92,0-1.74.17-2.48.52-.74.34-1.37.81-1.9,1.41-.53.6-.94,1.29-1.23,2.1-.29.8-.43,1.66-.43,2.57,0,.85.14,1.66.41,2.43.27.76.67,1.43,1.19,2.01.52.58,1.15,1.04,1.9,1.37.75.34,1.6.5,2.54.5s1.75-.19,2.45-.57c.7-.38,1.3-.92,1.78-1.6l1.85,1.4c-.12.17-.34.41-.64.72-.31.31-.71.63-1.21.94-.5.31-1.11.59-1.82.82-.71.24-1.53.36-2.46.36-1.28,0-2.44-.25-3.47-.73-1.03-.49-1.91-1.13-2.63-1.92-.72-.79-1.28-1.69-1.66-2.69-.38-1-.57-2.01-.57-3.03,0-1.25.21-2.41.62-3.47.41-1.06.99-1.98,1.73-2.75.74-.77,1.63-1.37,2.67-1.8,1.04-.43,2.18-.64,3.43-.64,1.07,0,2.12.21,3.15.62,1.03.41,1.87,1.05,2.53,1.9l-1.83,1.4Z"/>
        <rect class="cls-1" x="393.73" y="130.55" width="2.2" height="16.2"/>
        <polygon class="cls-1" points="407.02 130.56 409.91 130.56 418.83 143.88 418.88 143.88 418.88 130.56 421.08 130.56 421.08 146.76 418.29 146.76 409.27 133.44 409.22 133.44 409.22 146.76 407.02 146.76 407.02 130.56"/>
        <path class="cls-1" d="M445.98,137.7v7.99c-.4.24-.85.46-1.35.64-.5.18-1.03.34-1.57.47-.54.13-1.09.23-1.65.29s-1.08.09-1.57.09c-1.37,0-2.6-.23-3.67-.69-1.08-.46-1.98-1.08-2.72-1.85-.74-.78-1.31-1.68-1.69-2.71-.39-1.03-.58-2.12-.58-3.26,0-1.21.21-2.33.63-3.36.42-1.04,1-1.94,1.74-2.7.74-.76,1.63-1.36,2.67-1.8,1.04-.43,2.17-.65,3.41-.65,1.5,0,2.72.19,3.66.56.95.37,1.74.89,2.38,1.54l-1.56,1.67c-.67-.64-1.38-1.09-2.13-1.34-.75-.25-1.53-.38-2.36-.38-.93,0-1.77.17-2.52.51-.75.34-1.39.81-1.92,1.39-.54.58-.95,1.26-1.24,2.05-.29.79-.43,1.62-.43,2.51s.16,1.77.48,2.55c.32.79.76,1.47,1.33,2.05.56.58,1.23,1.03,1.99,1.36.76.33,1.59.49,2.49.49.78,0,1.51-.07,2.21-.22.69-.15,1.29-.36,1.77-.63v-4.51h-3.59v-2.06h5.79Z"/>
        <path class="cls-1" d="M464.36,145.11c.93,0,1.77-.17,2.52-.52.75-.34,1.39-.8,1.92-1.38.53-.58.95-1.26,1.24-2.05.29-.79.43-1.62.43-2.51s-.14-1.72-.43-2.5c-.29-.79-.7-1.47-1.24-2.05s-1.17-1.04-1.92-1.39c-.75-.34-1.59-.51-2.52-.51s-1.77.17-2.52.51c-.75.34-1.39.81-1.92,1.39s-.95,1.26-1.24,2.05c-.29.79-.43,1.62-.43,2.5s.14,1.72.43,2.51c.29.79.7,1.47,1.24,2.05.53.58,1.17,1.04,1.92,1.38.75.34,1.59.52,2.52.52M464.36,147.17c-1.24,0-2.37-.22-3.41-.65-1.04-.43-1.93-1.03-2.67-1.8-.74-.76-1.32-1.66-1.74-2.7-.42-1.04-.63-2.16-.63-3.36s.21-2.33.63-3.36c.42-1.04,1-1.94,1.74-2.7.74-.76,1.63-1.36,2.67-1.8,1.04-.43,2.17-.65,3.41-.65s2.37.22,3.41.65c1.04.43,1.93,1.03,2.67,1.8.74.76,1.32,1.66,1.74,2.7.42,1.04.63,2.16.63,3.36s-.21,2.33-.63,3.36c-.42,1.04-1,1.94-1.74,2.7-.74.76-1.63,1.36-2.67,1.8-1.04.43-2.17.65-3.41.65"/>
      </g>
    </g>
  </g>
</svg>