<?xml version="1.0" encoding="UTF-8"?>
<svg id="Capa_2" xmlns="http://www.w3.org/2000/svg" version="1.1" viewBox="0 0 70 70">
  <!-- Generator: Adobe Illustrator 29.3.1, SVG Export Plug-In . SVG Version: 2.1.0 Build 151)  -->
  <defs>
    <style>
      .st0 {
        fill: #edeff3;
      }

      .st1 {
        fill: #a9a721;
      }
    </style>
  </defs>
  <circle class="st1" cx="35" cy="35" r="34.9"/>
  <g>
    <path class="st0" d="M45.6,24.3v-1.7c0-.6-.5-.9-.9-.9s-.9.4-.9.9v5.8c0,.6.5,1,.9,1s.9-.4.9-1v-1.6c0-.2.2-.4.4-.4h7.1c.2,0,.4.2.4.4v4.5c0,1.5-1.1,2.5-2.6,2.5,0,0-1.5.2-6,.2s-6.4-.2-6.4-.2c-1.5,0-2.6-1-2.6-2.5v-11.6c0-1.5,1.1-2.5,2.6-2.5,0,0,1.9-.2,6.4-.2s6,.2,6,.2c1.5,0,2.6,1,2.6,2.5v4.6c0,.2-.2.4-.4.4h-7.1c-.2,0-.4-.2-.4-.4Z"/>
    <path class="st0" d="M45.6,42.8v-1.7c0-.6-.5-.9-.9-.9s-.9.4-.9.9v5.8c0,.6.5,1,.9,1s.9-.4.9-1v-1.6c0-.2.2-.4.4-.4h7.1c.2,0,.4.2.4.4v4.5c0,1.5-1.1,2.5-2.6,2.5,0,0-1.5.2-6,.2s-6.4-.2-6.4-.2c-1.5,0-2.6-1-2.6-2.5v-11.6c0-1.5,1.1-2.5,2.6-2.5,0,0,1.9-.2,6.4-.2s6,.2,6,.2c1.5,0,2.6,1,2.6,2.5v4.6c0,.2-.2.4-.4.4h-7.1c-.2,0-.4-.2-.4-.4Z"/>
    <path class="st0" d="M23.7,24.7h-7.1c-.2,0-.4-.2-.4-.4v-4.6c0-1.5,1.1-2.5,2.6-2.5,0,0,1.5-.2,6-.2,4.5,0,6.4.2,6.4.2,1.5,0,2.6,1,2.6,2.5v11.6c0,1.5-1.1,2.5-2.6,2.5,0,0-1.9.2-6.4.2-4.5,0-6-.2-6-.2-1.5,0-2.6-1-2.6-2.5v-4.5c0-.2.2-.4.4-.4h7.1c.2,0,.4.2.4.4v1.6c0,.6.5,1,.9,1s.9-.4.9-1v-5.8c0-.6-.5-.9-.9-.9s-.9.4-.9.9v1.7c0,.2-.2.4-.4.4Z"/>
    <path class="st0" d="M23.7,43.2h-7.1c-.2,0-.4-.2-.4-.4v-4.6c0-1.5,1.1-2.5,2.6-2.5,0,0,1.5-.2,6-.2,4.5,0,6.4.2,6.4.2,1.5,0,2.6,1,2.6,2.5v11.6c0,1.5-1.1,2.5-2.6,2.5,0,0-1.9.2-6.4.2-4.5,0-6-.2-6-.2-1.5,0-2.6-1-2.6-2.5v-4.5c0-.2.2-.4.4-.4h7.1c.2,0,.4.2.4.4v1.6c0,.6.5,1,.9,1s.9-.4.9-1v-5.8c0-.6-.5-.9-.9-.9s-.9.4-.9.9v1.7c0,.2-.2.4-.4.4Z"/>
  </g>
</svg>