<?xml version="1.0" encoding="UTF-8"?>
<svg id="Capa_1" xmlns="http://www.w3.org/2000/svg" version="1.1" viewBox="0 0 479 401">
  <!-- Generator: Adobe Illustrator 29.3.1, SVG Export Plug-In . SVG Version: 2.1.0 Build 151)  -->
  <defs>
    <style>
      .st0 {
        fill: #edeff3;
      }

      .st1 {
        fill: #a9a721;
      }
    </style>
  </defs>
  <circle class="st0" cx="253" cy="200" r="191"/>
  <g>
    <path class="st1" d="M310.9,141.6v-9.4c0-3.2-2.8-5.1-5-5.1s-5,1.9-5,5.1v31.8c0,3.4,2.8,5.3,5,5.3s5-2.1,5-5.3v-8.7c0-1.2,1-2.2,2.2-2.2h38.6c1.2,0,2.2,1,2.2,2.2v24.7c0,8.2-6.1,13.6-14.5,13.6,0,0-8.4,1-33,1s-34.8-1-34.8-1c-8.4,0-14.5-5.4-14.5-13.6v-63.6c0-8.2,6.1-13.6,14.5-13.6,0,0,10.2-1,34.8-1s33,1,33,1c8.4,0,14.5,5.4,14.5,13.6v25.2c0,1.2-1,2.2-2.2,2.2h-38.6c-1.2,0-2.2-1-2.2-2.2Z"/>
    <path class="st1" d="M310.9,242.8v-9.4c0-3.2-2.8-5.1-5-5.1s-5,1.9-5,5.1v31.8c0,3.4,2.8,5.3,5,5.3s5-2.1,5-5.3v-8.7c0-1.2,1-2.2,2.2-2.2h38.6c1.2,0,2.2,1,2.2,2.2v24.7c0,8.2-6.1,13.6-14.5,13.6,0,0-8.4,1-33,1s-34.8-1-34.8-1c-8.4,0-14.5-5.4-14.5-13.6v-63.6c0-8.2,6.1-13.6,14.5-13.6,0,0,10.2-1,34.8-1s33,1,33,1c8.4,0,14.5,5.4,14.5,13.6v25.2c0,1.2-1,2.2-2.2,2.2h-38.6c-1.2,0-2.2-1-2.2-2.2Z"/>
    <path class="st1" d="M191,143.8h-38.6c-1.2,0-2.2-1-2.2-2.2v-25.2c0-8.2,6.1-13.6,14.5-13.6,0,0,8.4-1,33-1,24.6,0,34.8,1,34.8,1,8.4,0,14.5,5.4,14.5,13.6v63.6c0,8.2-6.1,13.6-14.5,13.6,0,0-10.2,1-34.8,1-24.6,0-33-1-33-1-8.4,0-14.5-5.4-14.5-13.6v-24.7c0-1.2,1-2.2,2.2-2.2h38.6c1.2,0,2.2,1,2.2,2.2v8.7c0,3.3,2.8,5.3,5,5.3,2.3,0,5-2,5-5.3v-31.8c0-3.2-2.8-5.1-5-5.1-2.3,0-5,1.9-5,5.1v9.4c0,1.2-1,2.2-2.2,2.2Z"/>
    <path class="st1" d="M191,245h-38.6c-1.2,0-2.2-1-2.2-2.2v-25.2c0-8.2,6.1-13.6,14.5-13.6,0,0,8.4-1,33-1,24.6,0,34.8,1,34.8,1,8.4,0,14.5,5.4,14.5,13.6v63.6c0,8.2-6.1,13.6-14.5,13.6,0,0-10.2,1-34.8,1-24.6,0-33-1-33-1-8.4,0-14.5-5.4-14.5-13.6v-24.7c0-1.2,1-2.2,2.2-2.2h38.6c1.2,0,2.2,1,2.2,2.2v8.7c0,3.3,2.8,5.3,5,5.3s5-2,5-5.3v-31.8c0-3.2-2.8-5.1-5-5.1-2.3,0-5,1.9-5,5.1v9.4c0,1.2-1,2.2-2.2,2.2Z"/>
  </g>
</svg>