<?xml version="1.0" encoding="UTF-8"?>
<svg id="Capa_2" data-name="Capa 2" xmlns="http://www.w3.org/2000/svg" viewBox="0 0 769 769">
  <defs>
    <style>
      .cls-1 {
        fill: #edeff3;
      }

      .cls-2 {
        fill: #c0c7ca;
      }

      .cls-3 {
        opacity: .15;
      }
    </style>
  </defs>
  <g id="Capa_1-2" data-name="Capa 1">
    <g class="cls-3">
      <circle class="cls-2" cx="384.5" cy="384.5" r="384.5"/>
      <g>
        <path class="cls-1" d="M501.06,266.93v-18.98c0-6.38-5.57-10.25-10.12-10.25s-10.12,3.87-10.12,10.25v64c0,6.8,5.57,10.73,10.12,10.73s10.12-4.14,10.12-10.73v-17.48c0-2.4,1.94-4.33,4.33-4.33h77.63c2.39,0,4.33,1.94,4.33,4.33v49.73c0,16.46-12.3,27.31-29.15,27.31,0,0-16.83,2.08-66.37,2.08s-70.02-2.08-70.02-2.08c-16.84,0-29.15-10.85-29.15-27.31v-128.02c0-16.46,12.3-27.32,29.15-27.32,0,0,20.49-2.07,70.02-2.07s66.37,2.07,66.37,2.07c16.85,0,29.15,10.85,29.15,27.32v50.75c0,2.4-1.94,4.33-4.33,4.33h-77.63c-2.4,0-4.33-1.94-4.33-4.33Z"/>
        <path class="cls-1" d="M501.06,470.76v-18.98c0-6.38-5.57-10.25-10.12-10.25s-10.12,3.87-10.12,10.25v64c0,6.8,5.57,10.73,10.12,10.73s10.12-4.14,10.12-10.73v-17.48c0-2.4,1.94-4.33,4.33-4.33h77.63c2.39,0,4.33,1.94,4.33,4.33v49.73c0,16.46-12.3,27.31-29.15,27.31,0,0-16.83,2.08-66.37,2.08s-70.02-2.08-70.02-2.08c-16.84,0-29.15-10.85-29.15-27.31v-128.02c0-16.46,12.3-27.32,29.15-27.32,0,0,20.49-2.07,70.02-2.07s66.37,2.07,66.37,2.07c16.85,0,29.15,10.85,29.15,27.32v50.75c0,2.4-1.94,4.33-4.33,4.33h-77.63c-2.4,0-4.33-1.94-4.33-4.33Z"/>
        <path class="cls-1" d="M259.63,271.26h-77.63c-2.39,0-4.33-1.94-4.33-4.33v-50.75c0-16.46,12.3-27.32,29.15-27.32,0,0,16.83-2.07,66.37-2.07,49.54,0,70.02,2.07,70.02,2.07,16.84,0,29.15,10.85,29.15,27.32v128.02c0,16.46-12.3,27.31-29.15,27.31,0,0-20.49,2.08-70.02,2.08-49.54,0-66.37-2.08-66.37-2.08-16.85,0-29.15-10.85-29.15-27.31v-49.73c0-2.4,1.94-4.33,4.33-4.33h77.63c2.4,0,4.33,1.94,4.33,4.33v17.48c0,6.59,5.57,10.73,10.12,10.73,4.55,0,10.12-3.93,10.12-10.73v-64c0-6.38-5.57-10.25-10.12-10.25-4.55,0-10.12,3.87-10.12,10.25v18.98c0,2.4-1.94,4.33-4.33,4.33Z"/>
        <path class="cls-1" d="M259.63,475.09h-77.63c-2.39,0-4.33-1.94-4.33-4.33v-50.75c0-16.46,12.3-27.32,29.15-27.32,0,0,16.83-2.07,66.37-2.07,49.54,0,70.02,2.07,70.02,2.07,16.84,0,29.15,10.85,29.15,27.32v128.02c0,16.46-12.3,27.31-29.15,27.31,0,0-20.49,2.08-70.02,2.08-49.54,0-66.37-2.08-66.37-2.08-16.85,0-29.15-10.85-29.15-27.31v-49.73c0-2.4,1.94-4.33,4.33-4.33h77.63c2.4,0,4.33,1.94,4.33,4.33v17.48c0,6.59,5.57,10.73,10.12,10.73,4.55,0,10.12-3.93,10.12-10.73v-64c0-6.38-5.57-10.25-10.12-10.25-4.55,0-10.12,3.87-10.12,10.25v18.98c0,2.4-1.94,4.33-4.33,4.33Z"/>
      </g>
    </g>
  </g>
</svg>