<?xml version="1.0" encoding="UTF-8"?>
<svg id="Capa_2" data-name="Capa 2" xmlns="http://www.w3.org/2000/svg" viewBox="0 0 244.25 244.25">
  <defs>
    <style>
      .cls-1 {
        fill: #a9a73e;
      }

      .cls-2 {
        fill: #edeff2;
      }
    </style>
  </defs>
  <g id="Capa_1-2" data-name="Capa 1">
    <g>
      <circle class="cls-1" cx="122.13" cy="122.13" r="122.13"/>
      <g>
        <path class="cls-2" d="M159.15,84.78v-6.03c0-2.03-1.77-3.26-3.22-3.26s-3.22,1.23-3.22,3.26v20.33c0,2.16,1.77,3.41,3.22,3.41s3.22-1.31,3.22-3.41v-5.55c0-.76.62-1.38,1.38-1.38h24.66c.76,0,1.38.62,1.38,1.38v15.79c0,5.23-3.91,8.67-9.26,8.67,0,0-5.34.66-21.08.66s-22.24-.66-22.24-.66c-5.35,0-9.26-3.45-9.26-8.67v-40.66c0-5.23,3.91-8.68,9.26-8.68,0,0,6.51-.66,22.24-.66s21.08.66,21.08.66c5.35,0,9.26,3.45,9.26,8.68v16.12c0,.76-.62,1.38-1.38,1.38h-24.66c-.76,0-1.38-.62-1.38-1.38Z"/>
        <path class="cls-2" d="M159.15,149.52v-6.03c0-2.03-1.77-3.26-3.22-3.26s-3.22,1.23-3.22,3.26v20.33c0,2.16,1.77,3.41,3.22,3.41s3.22-1.31,3.22-3.41v-5.55c0-.76.62-1.38,1.38-1.38h24.66c.76,0,1.38.62,1.38,1.38v15.79c0,5.23-3.91,8.67-9.26,8.67,0,0-5.34.66-21.08.66s-22.24-.66-22.24-.66c-5.35,0-9.26-3.45-9.26-8.67v-40.66c0-5.23,3.91-8.68,9.26-8.68,0,0,6.51-.66,22.24-.66s21.08.66,21.08.66c5.35,0,9.26,3.45,9.26,8.68v16.12c0,.76-.62,1.38-1.38,1.38h-24.66c-.76,0-1.38-.62-1.38-1.38Z"/>
        <path class="cls-2" d="M82.46,86.16h-24.66c-.76,0-1.38-.62-1.38-1.38v-16.12c0-5.23,3.91-8.68,9.26-8.68,0,0,5.34-.66,21.08-.66,15.73,0,22.24.66,22.24.66,5.35,0,9.26,3.45,9.26,8.68v40.66c0,5.23-3.91,8.67-9.26,8.67,0,0-6.51.66-22.24.66-15.74,0-21.08-.66-21.08-.66-5.35,0-9.26-3.45-9.26-8.67v-15.79c0-.76.62-1.38,1.38-1.38h24.66c.76,0,1.38.62,1.38,1.38v5.55c0,2.09,1.77,3.41,3.22,3.41,1.45,0,3.22-1.25,3.22-3.41v-20.33c0-2.03-1.77-3.26-3.22-3.26-1.45,0-3.22,1.23-3.22,3.26v6.03c0,.76-.62,1.38-1.38,1.38Z"/>
        <path class="cls-2" d="M82.46,150.9h-24.66c-.76,0-1.38-.62-1.38-1.38v-16.12c0-5.23,3.91-8.68,9.26-8.68,0,0,5.34-.66,21.08-.66,15.73,0,22.24.66,22.24.66,5.35,0,9.26,3.45,9.26,8.68v40.66c0,5.23-3.91,8.67-9.26,8.67,0,0-6.51.66-22.24.66-15.74,0-21.08-.66-21.08-.66-5.35,0-9.26-3.45-9.26-8.67v-15.79c0-.76.62-1.38,1.38-1.38h24.66c.76,0,1.38.62,1.38,1.38v5.55c0,2.09,1.77,3.41,3.22,3.41,1.45,0,3.22-1.25,3.22-3.41v-20.33c0-2.03-1.77-3.26-3.22-3.26-1.45,0-3.22,1.23-3.22,3.26v6.03c0,.76-.62,1.38-1.38,1.38Z"/>
      </g>
    </g>
  </g>
</svg>